nColumns=19
nRows=133
DataType=double
version=3
OpenSimVersion=4.1
endheader
time	ground_force_1_vx	ground_force_1_vy	ground_force_1_vz	ground_force_1_px	ground_force_1_py	ground_force_1_pz	ground_force_1_mx	ground_force_1_my	ground_force_1_mz	ground_force_2_vx	ground_force_2_vy	ground_force_2_vz	ground_force_2_px	ground_force_2_py	ground_force_2_pz	ground_force_2_mx	ground_force_2_my	ground_force_2_mz
0.005	0	0	0	0.258816	0	-0.245156	0	0	0	0	0	0	1.1778	0	-0.391978	0	0	0
0.01	0	0	0	0.236139	0	-0.241676	0	0	0	0	0	0	1.20964	0	-0.39238	0	0	0
0.015	0	0	0	0.216001	0	-0.238744	0	0	0	0	0	0	1.24064	0	-0.393406	0	0	0
0.02	0	0	0	0.199361	0	-0.234835	0	0	0	0	0	0	1.27002	0	-0.394634	0	0	0
0.025	0	0	0	0.181118	0	-0.230304	0	0	0	0	0	0	1.29757	0	-0.39568	0	0	0
0.03	0	0	0	0.169756	0	-0.227385	0	0	0	0	0	0	1.3223	0	-0.398062	0	0	0
0.035	0	0	0	0.159334	0	-0.226377	0	0	0	0	0	0	1.34392	0	-0.400172	0	0	0
0.04	0	0	0	0.149897	0	-0.225825	0	0	0	0	0	0	1.36189	0	-0.402389	0	0	0
0.045	0	0	0	0.143097	0	-0.226201	0	0	0	0	0	0	1.37597	0	-0.40447	0	0	0
0.05	0	0	0	0.137516	0	-0.226628	0	0	0	0	0	0	1.38646	0	-0.406463	0	0	0
0.055	0	0	0	0.133763	0	-0.227784	0	0	0	0	0	0	1.39291	0	-0.408038	0	0	0
0.06	0	0	0	0.12929	0	-0.232064	0	0	0	0	0	0	1.39569	0	-0.409526	0	0	0
0.065	0	0	0	0.128977	0	-0.235356	0	0	0	0	0	0	1.3955	0	-0.411662	0	0	0
0.07	0	0	0	0.130824	0	-0.239085	0	0	0	0	0	0	1.3927	0	-0.414329	0	0	0
0.075	0	0	0	0.135315	0	-0.242763	0	0	0	0	0	0	1.38722	0	-0.415934	0	0	0
0.08	0	0	0	0.141889	0	-0.246434	0	0	0	0	0	0	1.37867	0	-0.416695	0	0	0
0.085	0	0	0	0.147743	0	-0.250638	0	0	0	0	0	0	1.36848	0	-0.416466	0	0	0
0.09	0	0	0	0.162497	0	-0.253984	0	0	0	0	0	0	1.35559	0	-0.415466	0	0	0
0.095	0	0	0	0.175836	0	-0.257023	0	0	0	0	0	0	1.34012	0	-0.414167	0	0	0
0.1	0	0	0	0.19075	0	-0.259595	0	0	0	0	0	0	1.32237	0	-0.411708	0	0	0
0.105	0	0	0	0.208282	0	-0.260892	0	0	0	0	0	0	1.30227	0	-0.409471	0	0	0
0.11	0	0	0	0.224922	0	-0.262086	0	0	0	-30.7407	47.7993	-1.02389	1.28042	0	-0.405352	0	-8.32916	0
0.115	0	0	0	0.243831	0	-0.262239	0	0	0	-69.8825	183.74	4.32619	1.16686	0	-0.449869	0	-6.92281	0
0.12	0	0	0	0.263707	0	-0.261653	0	0	0	-122.63	401.108	24.3915	1.12226	0	-0.444851	0	-2.65513	0
0.125	0	0	0	0.284647	0	-0.260376	0	0	0	-180.088	684.103	69.6374	1.10685	0	-0.427418	0	4.99476	0
0.13	0	0	0	0.306311	0	-0.258564	0	0	0	-224.026	990.482	132.325	1.09189	0	-0.413478	0	12.792	0
0.135	0	0	0	0.328353	0	-0.256496	0	0	0	-241.67	1298.94	184.542	1.07392	0	-0.402938	0	11.7033	0
0.14	0	0	0	0.351186	0	-0.254085	0	0	0	-250.937	1613.87	202.833	1.0473	0	-0.394051	0	-2.20248	0
0.145	0	0	0	0.374257	0	-0.25133	0	0	0	-276.059	1928.03	175.978	1.01777	0	-0.38658	0	-18.4412	0
0.15	0	0	0	0.397538	0	-0.248353	0	0	0	-318.214	2212.61	110.9	0.996907	0	-0.380576	0	-24.1892	0
0.155	0	0	0	0.420984	0	-0.247695	0	0	0	-373.656	2444.76	26.6474	0.985784	0	-0.376014	0	-19.597	0
0.16	0	0	0	0.444444	0	-0.245494	0	0	0	-434.534	2621.15	-54.5587	0.9788	0	-0.372805	0	-13.1172	0
0.165	0	0	0	0.467923	0	-0.244513	0	0	0	-483.482	2753.33	-110.359	0.970823	0	-0.370721	0	-11.1713	0
0.17	0	0	0	0.491389	0	-0.243345	0	0	0	-502.856	2851.94	-127.812	0.956954	0	-0.369787	0	-10.7012	0
0.175	0	0	0	0.514586	0	-0.241689	0	0	0	-477.427	2919.65	-105.504	0.9347	0	-0.369886	0	-5.27321	0
0.18	0	0	0	0.538595	0	-0.242318	0	0	0	-403.05	2954.35	-54.6056	0.904653	0	-0.37093	0	3.42454	0
0.185	0	0	0	0.563265	0	-0.242546	0	0	0	-297.505	2955.33	7.48217	0.868934	0	-0.372374	0	8.79217	0
0.19	0	0	0	0.589158	0	-0.242848	0	0	0	-187.13	2929.32	60.3857	0.832568	0	-0.37367	0	8.05956	0
0.195	0	0	0	0.616618	0	-0.242959	0	0	0	-86.1045	2880.28	97.0411	0.799677	0	-0.374313	0	2.63647	0
0.2	0	0	0	0.645823	0	-0.242115	0	0	0	6.64801	2805.87	121.294	0.770195	0	-0.374258	0	-4.42072	0
0.205	0	0	0	0.676952	0	-0.241753	0	0	0	98.6207	2703.57	139.018	0.742606	0	-0.373445	0	-13.6664	0
0.21	0	0	0	0.71	0	-0.240504	0	0	0	189.075	2574.32	150.11	0.716297	0	-0.371812	0	-29.2453	0
0.215	0	0	0	0.744644	0	-0.239244	0	0	0	268.496	2417.31	146.536	0.69136	0	-0.369571	0	-47.8197	0
0.22	0	0	0	0.780426	0	-0.238773	0	0	0	332.747	2231.15	117.485	0.669078	0	-0.367271	0	-54.7665	0
0.225	0	0	0	0.81744	0	-0.237426	0	0	0	383.011	2013.85	57.1467	0.648939	0	-0.365784	0	-37.4214	0
0.23	0	0	0	0.855048	0	-0.235649	0	0	0	421.029	1762.56	-28.479	0.627583	0	-0.366105	0	3.54508	0
0.235	0	0	0	0.893468	0	-0.232951	0	0	0	448.749	1477.61	-115.69	0.599558	0	-0.368699	0	53.4678	0
0.24	0	0	0	0.931425	0	-0.231011	0	0	0	461.601	1168.75	-170.564	0.556087	0	-0.373554	0	92.2245	0
0.245	0	0	0	0.969328	0	-0.229313	0	0	0	452.516	849.954	-168.905	0.480568	0	-0.381083	0	105.31	0
0.25	0	0	0	1.00696	0	-0.227192	0	0	0	416.86	544.173	-112.981	0.34273	0	-0.393357	0	87.115	0
0.255	0	0	0	1.04352	0	-0.226644	0	0	0	352.256	287.244	-29.0065	0.0936259	0	-0.413413	0	32.6785	0
0.26	0	0	0	1.07948	0	-0.227079	0	0	0	261.557	108.929	45.3812	0.234831	0	-0.39322	0	-59.0381	0
0.265	0	0	0	1.11445	0	-0.228153	0	0	0	0	0	0	0.362652	0	-0.377891	0	0	0
0.27	0	0	0	1.14888	0	-0.230254	0	0	0	0	0	0	0.341512	0	-0.379163	0	0	0
0.275	0	0	0	1.18187	0	-0.231994	0	0	0	0	0	0	0.320875	0	-0.379974	0	0	0
0.28	0	0	0	1.21342	0	-0.234004	0	0	0	0	0	0	0.302975	0	-0.379054	0	0	0
0.285	0	0	0	1.24358	0	-0.236001	0	0	0	0	0	0	0.284504	0	-0.375293	0	0	0
0.29	0	0	0	1.27186	0	-0.23761	0	0	0	0	0	0	0.264012	0	-0.373313	0	0	0
0.295	0	0	0	1.2982	0	-0.239026	0	0	0	0	0	0	0.246794	0	-0.370494	0	0	0
0.3	0	0	0	1.32243	0	-0.239695	0	0	0	0	0	0	0.232751	0	-0.367692	0	0	0
0.305	0	0	0	1.34431	0	-0.240085	0	0	0	0	0	0	0.219392	0	-0.363887	0	0	0
0.31	0	0	0	1.36339	0	-0.23973	0	0	0	0	0	0	0.206523	0	-0.361161	0	0	0
0.315	0	0	0	1.37928	0	-0.23875	0	0	0	0	0	0	0.195796	0	-0.358469	0	0	0
0.32	0	0	0	1.3926	0	-0.237354	0	0	0	0	0	0	0.188301	0	-0.356462	0	0	0
0.325	0	0	0	1.40183	0	-0.235271	0	0	0	0	0	0	0.184479	0	-0.35452	0	0	0
0.33	0	0	0	1.40817	0	-0.233743	0	0	0	0	0	0	0.180481	0	-0.350757	0	0	0
0.335	0	0	0	1.41108	0	-0.232598	0	0	0	0	0	0	0.180149	0	-0.350688	0	0	0
0.34	0	0	0	1.41068	0	-0.231608	0	0	0	0	0	0	0.183035	0	-0.34885	0	0	0
0.345	0	0	0	1.40713	0	-0.230785	0	0	0	0	0	0	0.18914	0	-0.348203	0	0	0
0.35	0	0	0	1.40076	0	-0.22997	0	0	0	0	0	0	0.195459	0	-0.346661	0	0	0
0.355	0	0	0	1.39166	0	-0.229045	0	0	0	0	0	0	0.204613	0	-0.346281	0	0	0
0.36	0	0	0	1.37986	0	-0.227749	0	0	0	0	0	0	0.215341	0	-0.346719	0	0	0
0.365	0	0	0	1.36606	0	-0.226151	0	0	0	0	0	0	0.22773	0	-0.345931	0	0	0
0.37	0	0	0	1.34977	0	-0.224417	0	0	0	0	0	0	0.241563	0	-0.346874	0	0	0
0.375	0	0	0	1.33079	0	-0.222614	0	0	0	0	0	0	0.256376	0	-0.347507	0	0	0
0.38	0	0	0	1.30944	0	-0.221825	0	0	0	0	0	0	0.272767	0	-0.348027	0	0	0
0.385	0	0	0	1.28584	0	-0.221371	0	0	0	0	0	0	0.290372	0	-0.349533	0	0	0
0.39	-15.9132	23.5259	6.9546	1.2601	0	-0.220667	0	2.98972	0	0	0	0	0.30874	0	-0.351696	0	0	0
0.395	-52.7035	124.773	1.10249	1.20642	0	-0.211138	0	0.391165	0	0	0	0	0.32818	0	-0.351539	0	0	0
0.4	-111.556	294.102	-19.3547	1.13164	0	-0.19721	0	-2.95612	0	0	0	0	0.348261	0	-0.355149	0	0	0
0.405	-180.813	525.556	-57.7644	1.11675	0	-0.207131	0	-6.52786	0	0	0	0	0.368866	0	-0.35821	0	0	0
0.41	-238.752	792.613	-108.71	1.10245	0	-0.215731	0	-10.8651	0	0	0	0	0.389932	0	-0.360805	0	0	0
0.415	-268.021	1078.66	-155.419	1.0859	0	-0.222795	0	-11.4808	0	0	0	0	0.411284	0	-0.363207	0	0	0
0.42	-276.699	1375.86	-179.947	1.06184	0	-0.228229	0	-4.18482	0	0	0	0	0.432903	0	-0.365612	0	0	0
0.425	-289.065	1672.34	-176.32	1.03144	0	-0.232199	0	4.66753	0	0	0	0	0.454508	0	-0.368573	0	0	0
0.43	-313.433	1953.71	-149.971	1.00223	0	-0.234969	0	6.82585	0	0	0	0	0.476477	0	-0.369024	0	0	0
0.435	-339.264	2215.48	-107.952	0.979452	0	-0.236899	0	4.32279	0	0	0	0	0.498832	0	-0.371398	0	0	0
0.44	-354.347	2457.43	-56.2775	0.962423	0	-0.238475	0	4.53012	0	0	0	0	0.521636	0	-0.37287	0	0	0
0.445	-355.475	2663.93	-3.4712	0.946827	0	-0.239764	0	9.48471	0	0	0	0	0.545039	0	-0.374058	0	0	0
0.45	-340.683	2804.72	39.1421	0.92673	0	-0.240543	0	14.8304	0	0	0	0	0.569336	0	-0.374668	0	0	0
0.455	-296.979	2865.56	63.7309	0.898578	0	-0.240884	0	12.9783	0	0	0	0	0.594704	0	-0.376192	0	0	0
0.46	-213.121	2865.49	70.868	0.863554	0	-0.240927	0	2.88409	0	0	0	0	0.621342	0	-0.377064	0	0	0
0.465	-100.424	2834.18	60.1468	0.826981	0	-0.241036	0	-6.17391	0	0	0	0	0.649665	0	-0.378363	0	0	0
0.47	14.3135	2777.76	33.7731	0.793637	0	-0.241226	0	-8.54747	0	0	0	0	0.676539	0	-0.378624	0	0	0
0.475	116.758	2686.38	-2.01034	0.764549	0	-0.241518	0	-5.36812	0	0	0	0	0.710864	0	-0.37972	0	0	0
0.48	211.738	2557.98	-37.793	0.73907	0	-0.24177	0	1.82243	0	0	0	0	0.744614	0	-0.38079	0	0	0
0.485	304.017	2395.26	-68.022	0.716799	0	-0.242036	0	10.6462	0	0	0	0	0.77875	0	-0.381327	0	0	0
0.49	383.061	2192.09	-90.2833	0.69586	0	-0.242244	0	19.1682	0	0	0	0	0.814732	0	-0.381804	0	0	0
0.495	434.949	1939.06	-102.53	0.672716	0	-0.242349	0	28.5234	0	0	0	0	0.851596	0	-0.382178	0	0	0
0.5	459.686	1634.81	-99.55	0.642712	0	-0.242262	0	36.0973	0	0	0	0	0.889769	0	-0.382348	0	0	0
0.505	463.805	1292.11	-76.1125	0.598466	0	-0.241894	0	34.8242	0	0	0	0	0.928288	0	-0.383085	0	0	0
0.51	447.776	932.364	-31.7393	0.525046	0	-0.240506	0	19.848	0	0	0	0	0.966045	0	-0.383602	0	0	0
0.515	409.701	588.96	26.1792	0.398003	0	-0.236809	0	-13.1949	0	0	0	0	1.00371	0	-0.383269	0	0	0
0.52	351.801	305.07	83.4444	0.187069	0	-0.228062	0	-70.2257	0	0	0	0	1.04094	0	-0.384471	0	0	0
0.525	279.458	111.151	117.312	0.288453	0	-0.227759	0	-138.002	0	0	0	0	1.07719	0	-0.385252	0	0	0
0.53	0	0	0	0.378835	0	-0.228643	0	0	0	0	0	0	1.11353	0	-0.387015	0	0	0
0.535	0	0	0	0.35616	0	-0.225893	0	0	0	0	0	0	1.14948	0	-0.389012	0	0	0
0.54	0	0	0	0.333551	0	-0.222043	0	0	0	0	0	0	1.18479	0	-0.390799	0	0	0
0.545	0	0	0	0.312227	0	-0.217199	0	0	0	0	0	0	1.21955	0	-0.392699	0	0	0
0.55	0	0	0	0.290672	0	-0.213792	0	0	0	0	0	0	1.25349	0	-0.393371	0	0	0
0.555	0	0	0	0.268238	0	-0.210572	0	0	0	0	0	0	1.28675	0	-0.393992	0	0	0
0.56	0	0	0	0.247292	0	-0.208816	0	0	0	0	0	0	1.31877	0	-0.394298	0	0	0
0.565	0	0	0	0.230675	0	-0.20495	0	0	0	0	0	0	1.34882	0	-0.395275	0	0	0
0.57	0	0	0	0.218064	0	-0.201624	0	0	0	0	0	0	1.37625	0	-0.39719	0	0	0
0.575	0	0	0	0.202253	0	-0.198416	0	0	0	0	0	0	1.40054	0	-0.39913	0	0	0
0.58	0	0	0	0.189949	0	-0.195929	0	0	0	0	0	0	1.42115	0	-0.401741	0	0	0
0.585	0	0	0	0.180149	0	-0.194042	0	0	0	0	0	0	1.43731	0	-0.40451	0	0	0
0.59	0	0	0	0.172775	0	-0.191602	0	0	0	0	0	0	1.44851	0	-0.406837	0	0	0
0.595	0	0	0	0.166579	0	-0.191506	0	0	0	0	0	0	1.45517	0	-0.408822	0	0	0
0.6	0	0	0	0.16184	0	-0.190665	0	0	0	0	0	0	1.45749	0	-0.410545	0	0	0
0.605	0	0	0	0.161969	0	-0.191172	0	0	0	0	0	0	1.45625	0	-0.412416	0	0	0
0.61	0	0	0	0.16906	0	-0.19131	0	0	0	0	0	0	1.45206	0	-0.414891	0	0	0
0.615	0	0	0	0.175341	0	-0.191825	0	0	0	0	0	0	1.44503	0	-0.417759	0	0	0
0.62	0	0	0	0.185062	0	-0.193733	0	0	0	0	0	0	1.43449	0	-0.420543	0	0	0
0.625	0	0	0	0.1964	0	-0.19523	0	0	0	0	0	0	1.42124	0	-0.421595	0	0	0
0.63	0	0	0	0.209692	0	-0.196545	0	0	0	0	0	0	1.40531	0	-0.42149	0	0	0
0.635	0	0	0	0.22441	0	-0.197947	0	0	0	0	0	0	1.38708	0	-0.42053	0	0	0
0.64	0	0	0	0.240773	0	-0.198958	0	0	0	0	0	0	1.36669	0	-0.417621	0	0	0
0.645	0	0	0	0.259116	0	-0.199955	0	0	0	0	0	0	1.34398	0	-0.414561	0	0	0
0.65	0	0	0	0.278632	0	-0.200866	0	0	0	-40.1406	72.5578	-18.3466	1.31952	0	-0.411142	0	-11.7425	0
0.655	0	0	0	0.299557	0	-0.20171	0	0	0	-86.5771	240.922	4.37337	1.13597	0	-0.485871	0	-8.65223	0
0.66	0	0	0	0.321469	0	-0.202234	0	0	0	-155.726	501.896	43.4356	1.12322	0	-0.45851	0	-5.61944	0
0.665	0	0	0	0.344203	0	-0.20285	0	0	0	-229.665	831.49	106.016	1.11462	0	-0.439481	0	2.99859	0
